<svg xmlns="http://www.w3.org/2000/svg" viewBox="0 0 1200 320" role="img" aria-labelledby="title desc">
  <title id="title">Sleep Stress Predictor logo</title>
  <desc id="desc">A crescent moon with healthcare and artificial intelligence details beside the application name.</desc>
  <defs>
    <linearGradient id="blue" x1="0" x2="1" y1="0" y2="1">
      <stop offset="0" stop-color="#0B3A75"/>
      <stop offset="1" stop-color="#1679C5"/>
    </linearGradient>
  </defs>
  <g transform="translate(26 26)">
    <circle cx="134" cy="134" r="128" fill="#E8F4FF"/>
    <circle cx="134" cy="134" r="112" fill="url(#blue)"/>
    <path d="M154 55c-49 18-74 72-56 121 13 35 46 58 83 61-24 20-55 29-87 23-61-11-102-69-91-130C12 72 74 28 136 43c7 2 13 5 18 12Z" fill="#fff"/>
    <path d="M93 159h25v-25h32v25h25v32h-25v25h-32v-25H93Z" fill="#69C7F5"/>
    <g fill="none" stroke="#69C7F5" stroke-linecap="round" stroke-width="8">
      <path d="M188 92h30l21-20"/><path d="M190 176h28l21 20"/><path d="M165 239v22l18 17"/>
    </g>
    <g fill="#fff" stroke="#69C7F5" stroke-width="7">
      <circle cx="249" cy="62" r="12"/><circle cx="249" cy="207" r="12"/><circle cx="183" cy="280" r="12"/>
    </g>
  </g>
  <g fill="#0B3A75" font-family="Arial, Helvetica, sans-serif">
    <text x="335" y="139" font-size="55" font-weight="700" letter-spacing="2">SLEEP STRESS PREDICTOR</text>
    <rect x="339" y="162" width="120" height="7" rx="3.5" fill="#49B7ED"/>
    <text x="335" y="210" font-size="25" fill="#4E6D8E" letter-spacing=".4">SLEEP DISORDER &amp; STRESS LEVEL PREDICTION</text>
    <text x="335" y="250" font-size="21" fill="#1679C5" letter-spacing="1.1">POWERED BY XGBOOST</text>
  </g>
</svg>
